<svg width="32" height="32" viewBox="0 0 32 32" fill="none" xmlns="http://www.w3.org/2000/svg">
  <rect width="32" height="32" rx="8" fill="#F5EFE6"/>
  <rect x="2" y="2" width="28" height="28" rx="6" stroke="#D4B99A" stroke-width="1.5"/>
  <circle cx="16" cy="13" r="5.5" fill="#B07855" opacity="0.18"/>
  <path d="M11.5 23V9.8H16.5C18.9 9.8 20.3 11.05 20.3 13.06C20.3 14.48 19.6 15.48 18.36 15.95C19.9 16.4 20.86 17.58 20.86 19.25C20.86 21.45 19.3 23 16.78 23H11.5ZM14.07 12.04V15.02H16.03C17.18 15.02 17.8 14.47 17.8 13.5C17.8 12.58 17.18 12.04 16.03 12.04H14.07ZM14.07 17.02V20.82H16.57C17.8 20.82 18.37 20.25 18.37 19.18C18.37 18.13 17.79 17.02 16.24 17.02H14.07Z" fill="#5C3D2E"/>
</svg>
